<svg xmlns="http://www.w3.org/2000/svg" xmlns:xlink="http://www.w3.org/1999/xlink" zoomAndPan="magnify" preserveAspectRatio="xMidYMid meet" version="1.0" viewBox="54.34 150.73 269.3 76"><defs><g/></defs><g fill="#624cf5" fill-opacity="1"><g transform="translate(85.458983, 225.725018)"><g><path d="M 1.5 -70 L 30.90625 -70 C 40.96875 -70 48.460938 -68.546875 53.390625 -65.640625 C 58.328125 -62.742188 60.796875 -57.5625 60.796875 -50.09375 C 60.796875 -41.832031 57.796875 -36.132812 51.796875 -33 C 46.203125 -30.132812 38.367188 -28.703125 28.296875 -28.703125 L 27.5 -28.703125 L 27.5 -1.90625 L 40 -1.90625 L 40 0 L 1.5 0 L 1.5 -1.90625 L 8 -1.90625 L 8 -68.09375 L 1.5 -68.09375 Z M 27.5 -68.09375 L 27.5 -30.59375 L 29.59375 -30.59375 C 33.59375 -30.59375 36.359375 -31.957031 37.890625 -34.6875 C 39.429688 -37.425781 40.203125 -41.863281 40.203125 -48 L 40.203125 -52.796875 C 40.203125 -58.460938 39.484375 -62.425781 38.046875 -64.6875 C 36.617188 -66.957031 34.003906 -68.09375 30.203125 -68.09375 Z M 27.5 -68.09375 "/></g></g></g><g fill="#624cf5" fill-opacity="1"><g transform="translate(148.856535, 225.725018)"><g><path d="M 25 -23.5 L 27.90625 -23.5 L 27.90625 -31.203125 C 27.90625 -37.535156 27.550781 -41.785156 26.84375 -43.953125 C 26.144531 -46.117188 24.796875 -47.203125 22.796875 -47.203125 C 21.597656 -47.203125 20.515625 -46.882812 19.546875 -46.25 C 18.578125 -45.613281 18.09375 -44.742188 18.09375 -43.640625 C 18.09375 -42.546875 18.296875 -41.429688 18.703125 -40.296875 L 21.203125 -40.296875 C 21.734375 -38.898438 22 -37.21875 22 -35.25 C 22 -33.28125 21.164062 -31.578125 19.5 -30.140625 C 17.832031 -28.710938 15.734375 -28 13.203125 -28 C 7.460938 -28 4.59375 -30.765625 4.59375 -36.296875 C 4.59375 -44.492188 11.5625 -48.59375 25.5 -48.59375 C 33.4375 -48.59375 38.921875 -47.242188 41.953125 -44.546875 C 44.984375 -41.847656 46.5 -36.898438 46.5 -29.703125 L 46.5 -9.40625 C 46.5 -5.9375 47.46875 -4.203125 49.40625 -4.203125 C 51.664062 -4.203125 53 -7.632812 53.40625 -14.5 L 54.90625 -14.40625 C 54.632812 -8.53125 53.53125 -4.492188 51.59375 -2.296875 C 49.664062 -0.0976562 46.5 1 42.09375 1 C 34.09375 1 29.492188 -1.46875 28.296875 -6.40625 C 27.429688 -3.863281 26.128906 -1.992188 24.390625 -0.796875 C 22.660156 0.398438 20.128906 1 16.796875 1 C 6.929688 1 2 -3.03125 2 -11.09375 C 2 -15.832031 3.878906 -19.082031 7.640625 -20.84375 C 11.410156 -22.613281 17.195312 -23.5 25 -23.5 Z M 21 -11.203125 C 21 -7.734375 21.179688 -5.5 21.546875 -4.5 C 21.910156 -3.5 22.609375 -3 23.640625 -3 C 24.679688 -3 25.648438 -3.847656 26.546875 -5.546875 C 27.453125 -7.242188 27.90625 -9.59375 27.90625 -12.59375 L 27.90625 -21.90625 L 27.203125 -21.90625 C 23.066406 -21.90625 21 -18.867188 21 -12.796875 Z M 21 -11.203125 "/></g></g></g><g fill="#624cf5" fill-opacity="1"><g transform="translate(203.754412, 225.725018)"><g><path d="M 1 -75 L 25.09375 -75 L 25.09375 -38.40625 C 26.164062 -41.46875 27.800781 -43.929688 30 -45.796875 C 32.195312 -47.660156 35.53125 -48.59375 40 -48.59375 C 50.332031 -48.59375 55.5 -43.03125 55.5 -31.90625 L 55.5 -1.796875 L 61.09375 -1.796875 L 61.09375 0 L 32.796875 0 L 32.796875 -1.796875 L 36.90625 -1.796875 L 36.90625 -34.296875 C 36.90625 -38.296875 36.632812 -40.878906 36.09375 -42.046875 C 35.5625 -43.210938 34.597656 -43.796875 33.203125 -43.796875 C 31.066406 -43.796875 29.179688 -42.394531 27.546875 -39.59375 C 25.910156 -36.800781 25.09375 -33.40625 25.09375 -29.40625 L 25.09375 -1.796875 L 29.40625 -1.796875 L 29.40625 0 L 1 0 L 1 -1.796875 L 6.5 -1.796875 L 6.5 -73.203125 L 1 -73.203125 Z M 1 -75 "/></g></g></g><g fill="#624cf5" fill-opacity="1"><g transform="translate(265.352038, 225.725018)"><g><path d="M 25 -23.5 L 27.90625 -23.5 L 27.90625 -31.203125 C 27.90625 -37.535156 27.550781 -41.785156 26.84375 -43.953125 C 26.144531 -46.117188 24.796875 -47.203125 22.796875 -47.203125 C 21.597656 -47.203125 20.515625 -46.882812 19.546875 -46.25 C 18.578125 -45.613281 18.09375 -44.742188 18.09375 -43.640625 C 18.09375 -42.546875 18.296875 -41.429688 18.703125 -40.296875 L 21.203125 -40.296875 C 21.734375 -38.898438 22 -37.21875 22 -35.25 C 22 -33.28125 21.164062 -31.578125 19.5 -30.140625 C 17.832031 -28.710938 15.734375 -28 13.203125 -28 C 7.460938 -28 4.59375 -30.765625 4.59375 -36.296875 C 4.59375 -44.492188 11.5625 -48.59375 25.5 -48.59375 C 33.4375 -48.59375 38.921875 -47.242188 41.953125 -44.546875 C 44.984375 -41.847656 46.5 -36.898438 46.5 -29.703125 L 46.5 -9.40625 C 46.5 -5.9375 47.46875 -4.203125 49.40625 -4.203125 C 51.664062 -4.203125 53 -7.632812 53.40625 -14.5 L 54.90625 -14.40625 C 54.632812 -8.53125 53.53125 -4.492188 51.59375 -2.296875 C 49.664062 -0.0976562 46.5 1 42.09375 1 C 34.09375 1 29.492188 -1.46875 28.296875 -6.40625 C 27.429688 -3.863281 26.128906 -1.992188 24.390625 -0.796875 C 22.660156 0.398438 20.128906 1 16.796875 1 C 6.929688 1 2 -3.03125 2 -11.09375 C 2 -15.832031 3.878906 -19.082031 7.640625 -20.84375 C 11.410156 -22.613281 17.195312 -23.5 25 -23.5 Z M 21 -11.203125 C 21 -7.734375 21.179688 -5.5 21.546875 -4.5 C 21.910156 -3.5 22.609375 -3 23.640625 -3 C 24.679688 -3 25.648438 -3.847656 26.546875 -5.546875 C 27.453125 -7.242188 27.90625 -9.59375 27.90625 -12.59375 L 27.90625 -21.90625 L 27.203125 -21.90625 C 23.066406 -21.90625 21 -18.867188 21 -12.796875 Z M 21 -11.203125 "/></g></g></g><g fill="#ff990c" fill-opacity="1"><g transform="translate(53.748049, 225.749985)"><g><path d="M 15.703125 -54.5 C 12.171875 -54.5 9.65625 -55.398438 8.15625 -57.203125 C 6.65625 -59.003906 5.90625 -61.238281 5.90625 -63.90625 C 5.90625 -66.570312 6.71875 -68.769531 8.34375 -70.5 C 9.976562 -72.226562 12.460938 -73.09375 15.796875 -73.09375 C 19.128906 -73.09375 21.660156 -72.3125 23.390625 -70.75 C 25.128906 -69.1875 26 -66.953125 26 -64.046875 C 26 -61.148438 25.164062 -58.832031 23.5 -57.09375 C 21.832031 -55.363281 19.234375 -54.5 15.703125 -54.5 Z M 0.59375 -47.59375 L 25.09375 -47.59375 L 25.09375 -1.796875 L 30.703125 -1.796875 L 30.703125 0 L 1 0 L 1 -1.796875 L 6.5 -1.796875 L 6.5 -45.796875 L 0.59375 -45.796875 Z M 0.59375 -47.59375 "/></g></g></g><g fill="#ff990c" fill-opacity="1"><g transform="translate(230.794912, 171.751263)"><g><path d="M 0.625 -21 L 16.234375 -21 L 16.53125 -15.0625 L 15.984375 -15.0625 C 15.148438 -17.082031 14.269531 -18.46875 13.34375 -19.21875 C 12.425781 -19.96875 11.078125 -20.34375 9.296875 -20.34375 L 8.25 -20.34375 L 8.25 -11.0625 L 9.265625 -11.0625 C 10.210938 -11.0625 11.003906 -11.414062 11.640625 -12.125 C 12.273438 -12.84375 12.722656 -13.800781 12.984375 -15 L 13.4375 -15 L 13.4375 -6.125 L 12.9375 -6.125 C 12.570312 -7.625 12.082031 -8.691406 11.46875 -9.328125 C 10.863281 -9.972656 10.03125 -10.296875 8.96875 -10.296875 L 8.25 -10.296875 L 8.25 -0.65625 L 9.390625 -0.65625 C 11.234375 -0.65625 12.796875 -1.203125 14.078125 -2.296875 C 15.367188 -3.398438 16.253906 -4.816406 16.734375 -6.546875 L 17.34375 -6.546875 L 17.09375 0 L 0.625 0 L 0.625 -0.65625 L 2.40625 -0.65625 L 2.40625 -20.34375 L 0.625 -20.34375 Z M 0.625 -21 "/></g></g></g><g fill="#ff990c" fill-opacity="1"><g transform="translate(249.507637, 171.751263)"><g><path d="M 0 -13.734375 L 0 -14.28125 L 8.96875 -14.28125 L 8.96875 -13.734375 L 7.078125 -13.734375 L 10.6875 -3.78125 L 13.921875 -13.734375 L 11.90625 -13.734375 L 11.90625 -14.28125 L 15.953125 -14.28125 L 15.953125 -13.734375 L 14.640625 -13.734375 L 10.203125 0 L 6.78125 0 L 1.234375 -13.734375 Z M 0 -13.734375 "/></g></g></g><g fill="#ff990c" fill-opacity="1"><g transform="translate(265.461433, 171.751263)"><g><path d="M 8.1875 0.296875 C 5.601562 0.296875 3.664062 -0.363281 2.375 -1.6875 C 1.09375 -3.019531 0.453125 -4.867188 0.453125 -7.234375 C 0.453125 -9.609375 1.175781 -11.425781 2.625 -12.6875 C 4.070312 -13.945312 5.914062 -14.578125 8.15625 -14.578125 C 12.695312 -14.578125 14.878906 -12.296875 14.703125 -7.734375 L 6.234375 -7.734375 L 6.234375 -6.5625 C 6.234375 -4.601562 6.484375 -3.125 6.984375 -2.125 C 7.484375 -1.125 8.351562 -0.625 9.59375 -0.625 C 11.914062 -0.625 13.4375 -1.863281 14.15625 -4.34375 L 14.703125 -4.265625 C 14.316406 -2.816406 13.628906 -1.691406 12.640625 -0.890625 C 11.648438 -0.0976562 10.164062 0.296875 8.1875 0.296875 Z M 6.265625 -8.34375 L 9.359375 -8.34375 L 9.359375 -9.8125 C 9.359375 -11.425781 9.265625 -12.53125 9.078125 -13.125 C 8.890625 -13.71875 8.507812 -14.015625 7.9375 -14.015625 C 7.363281 -14.015625 6.941406 -13.695312 6.671875 -13.0625 C 6.398438 -12.4375 6.265625 -11.351562 6.265625 -9.8125 Z M 6.265625 -8.34375 "/></g></g></g><g fill="#ff990c" fill-opacity="1"><g transform="translate(280.935423, 171.751263)"><g><path d="M 0.359375 -14.28125 L 7.59375 -14.28125 L 7.59375 -11.515625 C 7.90625 -12.441406 8.390625 -13.179688 9.046875 -13.734375 C 9.710938 -14.296875 10.71875 -14.578125 12.0625 -14.578125 C 15.15625 -14.578125 16.703125 -12.90625 16.703125 -9.5625 L 16.703125 -0.546875 L 18.390625 -0.546875 L 18.390625 0 L 9.90625 0 L 9.90625 -0.546875 L 11.125 -0.546875 L 11.125 -10.296875 C 11.125 -11.492188 11.046875 -12.265625 10.890625 -12.609375 C 10.734375 -12.960938 10.441406 -13.140625 10.015625 -13.140625 C 9.378906 -13.140625 8.816406 -12.71875 8.328125 -11.875 C 7.835938 -11.039062 7.59375 -10.019531 7.59375 -8.8125 L 7.59375 -0.546875 L 8.875 -0.546875 L 8.875 0 L 0.359375 0 L 0.359375 -0.546875 L 2.015625 -0.546875 L 2.015625 -13.734375 L 0.359375 -13.734375 Z M 0.359375 -14.28125 "/></g></g></g><g fill="#ff990c" fill-opacity="1"><g transform="translate(299.408246, 171.751263)"><g><path d="M 1.796875 -4.296875 L 1.796875 -13.734375 L 0.15625 -13.734375 L 0.15625 -14.28125 L 1.796875 -14.28125 L 1.796875 -18.15625 L 7.375 -19.53125 L 7.375 -14.28125 L 11.28125 -14.28125 L 11.28125 -13.734375 L 7.375 -13.734375 L 7.375 -3.625 C 7.375 -2.6875 7.46875 -2 7.65625 -1.5625 C 7.851562 -1.125 8.25 -0.90625 8.84375 -0.90625 C 9.445312 -0.90625 9.972656 -1.203125 10.421875 -1.796875 C 10.867188 -2.398438 11.164062 -3.222656 11.3125 -4.265625 L 11.8125 -4.203125 C 11.65625 -2.816406 11.21875 -1.71875 10.5 -0.90625 C 9.78125 -0.101562 8.585938 0.296875 6.921875 0.296875 C 5.265625 0.296875 3.992188 -0.03125 3.109375 -0.6875 C 2.234375 -1.351562 1.796875 -2.554688 1.796875 -4.296875 Z M 1.796875 -4.296875 "/></g></g></g><g fill="#ff990c" fill-opacity="1"><g transform="translate(311.223652, 171.751263)"><g><path d="M 0.984375 0.296875 L 0.984375 -5.0625 L 1.34375 -5.0625 C 1.863281 -3.320312 2.5625 -2.101562 3.4375 -1.40625 C 4.320312 -0.707031 5.425781 -0.359375 6.75 -0.359375 C 8.789062 -0.359375 9.8125 -1.007812 9.8125 -2.3125 C 9.8125 -2.875 9.5625 -3.289062 9.0625 -3.5625 C 8.28125 -4.007812 7.28125 -4.351562 6.0625 -4.59375 C 4.695312 -4.945312 3.554688 -5.425781 2.640625 -6.03125 C 1.535156 -6.75 0.984375 -7.890625 0.984375 -9.453125 C 0.984375 -11.015625 1.460938 -12.257812 2.421875 -13.1875 C 3.390625 -14.113281 4.671875 -14.578125 6.265625 -14.578125 C 7.242188 -14.578125 8.253906 -14.347656 9.296875 -13.890625 C 9.679688 -13.734375 9.972656 -13.65625 10.171875 -13.65625 C 10.367188 -13.65625 10.535156 -13.722656 10.671875 -13.859375 C 10.816406 -13.992188 10.988281 -14.253906 11.1875 -14.640625 L 11.515625 -14.640625 L 11.515625 -10.046875 L 11.15625 -10.046875 C 10.132812 -12.648438 8.554688 -13.953125 6.421875 -13.953125 C 5.484375 -13.953125 4.78125 -13.785156 4.3125 -13.453125 C 3.851562 -13.117188 3.625 -12.703125 3.625 -12.203125 C 3.625 -11.910156 3.691406 -11.675781 3.828125 -11.5 C 3.972656 -11.332031 4.085938 -11.207031 4.171875 -11.125 C 4.253906 -11.050781 4.382812 -10.96875 4.5625 -10.875 C 4.738281 -10.78125 4.882812 -10.707031 5 -10.65625 C 5.125 -10.613281 5.3125 -10.550781 5.5625 -10.46875 C 5.8125 -10.382812 6 -10.332031 6.125 -10.3125 C 7.476562 -9.976562 8.453125 -9.6875 9.046875 -9.4375 C 9.648438 -9.1875 10.222656 -8.878906 10.765625 -8.515625 C 11.867188 -7.753906 12.421875 -6.53125 12.421875 -4.84375 C 12.421875 -3.15625 11.921875 -1.875 10.921875 -1 C 9.921875 -0.132812 8.550781 0.296875 6.8125 0.296875 C 5.570312 0.296875 4.367188 0.0078125 3.203125 -0.5625 C 2.960938 -0.726562 2.773438 -0.8125 2.640625 -0.8125 C 2.203125 -0.8125 1.769531 -0.441406 1.34375 0.296875 Z M 0.984375 0.296875 "/></g></g></g></svg>