<svg xmlns="http://www.w3.org/2000/svg" xmlns:xlink="http://www.w3.org/1999/xlink" zoomAndPan="magnify" preserveAspectRatio="xMidYMid meet" version="1.0" viewBox="73.47 92.25 229.75 182.75"><defs><g/></defs><g fill="#ff4a00" fill-opacity="1"><g transform="translate(151.221295, 275.000807)"><g><path d="M 3.75 -175 L 77.25 -175 C 102.414062 -175 121.164062 -171.375 133.5 -164.125 C 145.832031 -156.875 152 -143.914062 152 -125.25 C 152 -104.582031 144.5 -90.332031 129.5 -82.5 C 115.5 -75.332031 95.914062 -71.75 70.75 -71.75 L 68.75 -71.75 L 68.75 -4.75 L 100 -4.75 L 100 0 L 3.75 0 L 3.75 -4.75 L 20 -4.75 L 20 -170.25 L 3.75 -170.25 Z M 68.75 -170.25 L 68.75 -76.5 L 74 -76.5 C 84 -76.5 90.914062 -79.914062 94.75 -86.75 C 98.582031 -93.582031 100.5 -104.664062 100.5 -120 L 100.5 -132 C 100.5 -146.164062 98.707031 -156.082031 95.125 -161.75 C 91.539062 -167.414062 85 -170.25 75.5 -170.25 Z M 68.75 -170.25 "/></g></g></g><g fill="#ff4a00" fill-opacity="1"><g transform="translate(71.967393, 275.000807)"><g><path d="M 39.25 -136.25 C 30.414062 -136.25 24.125 -138.5 20.375 -143 C 16.625 -147.5 14.75 -153.082031 14.75 -159.75 C 14.75 -166.414062 16.789062 -171.914062 20.875 -176.25 C 24.957031 -180.582031 31.164062 -182.75 39.5 -182.75 C 47.832031 -182.75 54.164062 -180.789062 58.5 -176.875 C 62.832031 -172.957031 65 -167.375 65 -160.125 C 65 -152.875 62.914062 -147.082031 58.75 -142.75 C 54.582031 -138.414062 48.082031 -136.25 39.25 -136.25 Z M 1.5 -119 L 62.75 -119 L 62.75 -4.5 L 76.75 -4.5 L 76.75 0 L 2.5 0 L 2.5 -4.5 L 16.25 -4.5 L 16.25 -114.5 L 1.5 -114.5 Z M 1.5 -119 "/></g></g></g><g fill="#ff4a00" fill-opacity="1"><g transform="translate(221.003047, 268.744905)"><g><path d="M 0.203125 -7 L 5.40625 -7 L 5.515625 -5.015625 L 5.328125 -5.015625 C 5.046875 -5.691406 4.75 -6.15625 4.4375 -6.40625 C 4.132812 -6.65625 3.6875 -6.78125 3.09375 -6.78125 L 2.75 -6.78125 L 2.75 -3.6875 L 3.09375 -3.6875 C 3.40625 -3.6875 3.664062 -3.804688 3.875 -4.046875 C 4.09375 -4.285156 4.242188 -4.601562 4.328125 -5 L 4.484375 -5 L 4.484375 -2.046875 L 4.3125 -2.046875 C 4.1875 -2.546875 4.019531 -2.898438 3.8125 -3.109375 C 3.613281 -3.328125 3.335938 -3.4375 2.984375 -3.4375 L 2.75 -3.4375 L 2.75 -0.21875 L 3.125 -0.21875 C 3.738281 -0.21875 4.257812 -0.398438 4.6875 -0.765625 C 5.125 -1.128906 5.421875 -1.601562 5.578125 -2.1875 L 5.78125 -2.1875 L 5.703125 0 L 0.203125 0 L 0.203125 -0.21875 L 0.796875 -0.21875 L 0.796875 -6.78125 L 0.203125 -6.78125 Z M 0.203125 -7 "/></g></g></g><g fill="#ff4a00" fill-opacity="1"><g transform="translate(227.240592, 268.744905)"><g><path d="M 0 -4.578125 L 0 -4.765625 L 2.984375 -4.765625 L 2.984375 -4.578125 L 2.359375 -4.578125 L 3.5625 -1.265625 L 4.640625 -4.578125 L 3.96875 -4.578125 L 3.96875 -4.765625 L 5.3125 -4.765625 L 5.3125 -4.578125 L 4.875 -4.578125 L 3.40625 0 L 2.265625 0 L 0.40625 -4.578125 Z M 0 -4.578125 "/></g></g></g><g fill="#ff4a00" fill-opacity="1"><g transform="translate(232.558489, 268.744905)"><g><path d="M 2.734375 0.09375 C 1.867188 0.09375 1.222656 -0.125 0.796875 -0.5625 C 0.367188 -1.007812 0.15625 -1.625 0.15625 -2.40625 C 0.15625 -3.195312 0.394531 -3.800781 0.875 -4.21875 C 1.351562 -4.644531 1.96875 -4.859375 2.71875 -4.859375 C 4.226562 -4.859375 4.957031 -4.097656 4.90625 -2.578125 L 2.078125 -2.578125 L 2.078125 -2.1875 C 2.078125 -1.53125 2.160156 -1.035156 2.328125 -0.703125 C 2.492188 -0.367188 2.785156 -0.203125 3.203125 -0.203125 C 3.972656 -0.203125 4.476562 -0.617188 4.71875 -1.453125 L 4.90625 -1.421875 C 4.769531 -0.941406 4.535156 -0.566406 4.203125 -0.296875 C 3.878906 -0.0351562 3.390625 0.09375 2.734375 0.09375 Z M 2.09375 -2.78125 L 3.125 -2.78125 L 3.125 -3.265625 C 3.125 -3.804688 3.09375 -4.175781 3.03125 -4.375 C 2.96875 -4.570312 2.835938 -4.671875 2.640625 -4.671875 C 2.453125 -4.671875 2.3125 -4.566406 2.21875 -4.359375 C 2.132812 -4.148438 2.09375 -3.785156 2.09375 -3.265625 Z M 2.09375 -2.78125 "/></g></g></g><g fill="#ff4a00" fill-opacity="1"><g transform="translate(237.716455, 268.744905)"><g><path d="M 0.125 -4.765625 L 2.53125 -4.765625 L 2.53125 -3.84375 C 2.632812 -4.144531 2.796875 -4.390625 3.015625 -4.578125 C 3.234375 -4.765625 3.566406 -4.859375 4.015625 -4.859375 C 5.046875 -4.859375 5.5625 -4.300781 5.5625 -3.1875 L 5.5625 -0.1875 L 6.125 -0.1875 L 6.125 0 L 3.296875 0 L 3.296875 -0.1875 L 3.703125 -0.1875 L 3.703125 -3.4375 C 3.703125 -3.832031 3.675781 -4.085938 3.625 -4.203125 C 3.570312 -4.316406 3.476562 -4.375 3.34375 -4.375 C 3.125 -4.375 2.929688 -4.234375 2.765625 -3.953125 C 2.609375 -3.679688 2.53125 -3.34375 2.53125 -2.9375 L 2.53125 -0.1875 L 2.953125 -0.1875 L 2.953125 0 L 0.125 0 L 0.125 -0.1875 L 0.671875 -0.1875 L 0.671875 -4.578125 L 0.125 -4.578125 Z M 0.125 -4.765625 "/></g></g></g><g fill="#ff4a00" fill-opacity="1"><g transform="translate(243.874029, 268.744905)"><g><path d="M 0.59375 -1.4375 L 0.59375 -4.578125 L 0.046875 -4.578125 L 0.046875 -4.765625 L 0.59375 -4.765625 L 0.59375 -6.046875 L 2.453125 -6.515625 L 2.453125 -4.765625 L 3.765625 -4.765625 L 3.765625 -4.578125 L 2.453125 -4.578125 L 2.453125 -1.203125 C 2.453125 -0.890625 2.484375 -0.660156 2.546875 -0.515625 C 2.617188 -0.367188 2.753906 -0.296875 2.953125 -0.296875 C 3.148438 -0.296875 3.320312 -0.394531 3.46875 -0.59375 C 3.625 -0.800781 3.722656 -1.078125 3.765625 -1.421875 L 3.9375 -1.40625 C 3.882812 -0.9375 3.738281 -0.566406 3.5 -0.296875 C 3.257812 -0.0351562 2.863281 0.09375 2.3125 0.09375 C 1.757812 0.09375 1.332031 -0.015625 1.03125 -0.234375 C 0.738281 -0.453125 0.59375 -0.851562 0.59375 -1.4375 Z M 0.59375 -1.4375 "/></g></g></g><g fill="#ff4a00" fill-opacity="1"><g transform="translate(247.812478, 268.744905)"><g><path d="M 0.328125 0.09375 L 0.328125 -1.6875 L 0.453125 -1.6875 C 0.617188 -1.101562 0.847656 -0.695312 1.140625 -0.46875 C 1.441406 -0.238281 1.8125 -0.125 2.25 -0.125 C 2.925781 -0.125 3.265625 -0.335938 3.265625 -0.765625 C 3.265625 -0.953125 3.179688 -1.09375 3.015625 -1.1875 C 2.753906 -1.332031 2.421875 -1.445312 2.015625 -1.53125 C 1.566406 -1.644531 1.1875 -1.804688 0.875 -2.015625 C 0.507812 -2.253906 0.328125 -2.632812 0.328125 -3.15625 C 0.328125 -3.675781 0.488281 -4.085938 0.8125 -4.390625 C 1.132812 -4.703125 1.5625 -4.859375 2.09375 -4.859375 C 2.414062 -4.859375 2.75 -4.78125 3.09375 -4.625 C 3.226562 -4.570312 3.328125 -4.546875 3.390625 -4.546875 C 3.453125 -4.546875 3.503906 -4.566406 3.546875 -4.609375 C 3.597656 -4.660156 3.660156 -4.75 3.734375 -4.875 L 3.84375 -4.875 L 3.84375 -3.34375 L 3.71875 -3.34375 C 3.375 -4.21875 2.847656 -4.65625 2.140625 -4.65625 C 1.828125 -4.65625 1.59375 -4.597656 1.4375 -4.484375 C 1.28125 -4.367188 1.203125 -4.226562 1.203125 -4.0625 C 1.203125 -3.96875 1.222656 -3.890625 1.265625 -3.828125 C 1.316406 -3.773438 1.359375 -3.734375 1.390625 -3.703125 C 1.421875 -3.679688 1.460938 -3.65625 1.515625 -3.625 C 1.578125 -3.59375 1.628906 -3.566406 1.671875 -3.546875 C 1.710938 -3.535156 1.773438 -3.515625 1.859375 -3.484375 C 1.941406 -3.460938 2.003906 -3.445312 2.046875 -3.4375 C 2.492188 -3.320312 2.816406 -3.222656 3.015625 -3.140625 C 3.210938 -3.054688 3.40625 -2.957031 3.59375 -2.84375 C 3.957031 -2.582031 4.140625 -2.171875 4.140625 -1.609375 C 4.140625 -1.046875 3.972656 -0.617188 3.640625 -0.328125 C 3.304688 -0.046875 2.847656 0.09375 2.265625 0.09375 C 1.859375 0.09375 1.457031 0 1.0625 -0.1875 C 0.988281 -0.238281 0.925781 -0.265625 0.875 -0.265625 C 0.726562 -0.265625 0.585938 -0.144531 0.453125 0.09375 Z M 0.328125 0.09375 "/></g></g></g></svg>