<svg xmlns="http://www.w3.org/2000/svg" xmlns:xlink="http://www.w3.org/1999/xlink" zoomAndPan="magnify" preserveAspectRatio="xMidYMid meet" version="1.0" viewBox="108.09 167.55 161.89 48.41"><defs><g/></defs><g fill="#00ff5e" fill-opacity="1"><g transform="translate(104.237546, 206.999986)"><g><path d="M 10.328125 -6.484375 C 10.21875 -7.089844 10.164062 -7.363281 10.164062 -7.691406 C 10.164062 -8.023438 10.605469 -8.957031 10.605469 -9.671875 C 10.605469 -10.109375 10.328125 -10.550781 10.328125 -10.988281 C 10.328125 -11.152344 10.382812 -11.375 10.382812 -11.59375 C 10.382812 -11.867188 10.109375 -12.144531 10.109375 -12.363281 C 10.109375 -12.691406 10.441406 -13.023438 10.441406 -13.351562 C 10.441406 -14.066406 10.273438 -14.78125 10.273438 -15.605469 C 10.273438 -19.285156 19.121094 -15.605469 19.121094 -19.890625 C 19.121094 -21.207031 17.03125 -21.429688 15 -21.429688 C 13.570312 -21.429688 12.253906 -21.320312 11.539062 -21.320312 C 10.109375 -21.320312 9.945312 -21.703125 9.945312 -23.460938 C 9.945312 -24.121094 10.054688 -24.78125 10.054688 -25.382812 C 10.054688 -28.296875 9.78125 -31.207031 9.78125 -34.175781 C 9.78125 -34.558594 10.21875 -34.890625 10.605469 -34.890625 C 15.109375 -34.230469 19.671875 -34.011719 24.175781 -34.011719 C 25.109375 -34.175781 25.660156 -34.449219 25.660156 -34.78125 C 25.660156 -35.054688 25.441406 -35.441406 25.441406 -35.714844 C 25.441406 -35.988281 25.496094 -36.207031 25.496094 -36.484375 C 25.496094 -38.132812 23.132812 -38.296875 21.757812 -38.296875 C 21.429688 -38.296875 21.042969 -38.1875 20.714844 -38.1875 C 18.625 -38.1875 16.59375 -38.460938 14.503906 -38.460938 C 14.121094 -38.460938 13.734375 -38.40625 13.351562 -38.40625 C 12.691406 -38.40625 12.144531 -38.679688 11.539062 -38.679688 C 11.207031 -38.679688 10.824219 -38.625 10.496094 -38.625 C 9.726562 -38.625 7.363281 -38.847656 6.042969 -39.394531 C 5.988281 -39.394531 5.933594 -39.449219 5.878906 -39.449219 C 4.726562 -39.449219 4.503906 -34.394531 4.503906 -32.910156 C 4.503906 -32.527344 4.558594 -32.085938 4.558594 -31.703125 C 4.558594 -30.550781 4.339844 -29.011719 4.339844 -28.078125 C 4.339844 -27.527344 4.617188 -26.976562 4.617188 -26.375 C 4.617188 -26.097656 4.394531 -25.824219 4.394531 -25.550781 C 4.394531 -25.273438 4.449219 -25 4.449219 -24.671875 C 4.449219 -24.230469 4.285156 -23.792969 4.285156 -23.296875 C 4.285156 -22.855469 4.339844 -22.363281 4.394531 -21.921875 C 4.394531 -21.320312 3.847656 -20.933594 3.847656 -20.496094 C 3.847656 -19.671875 4.726562 -18.679688 4.726562 -17.96875 C 4.726562 -17.582031 4.285156 -17.089844 4.285156 -16.703125 C 4.285156 -14.945312 4.394531 -13.1875 4.394531 -11.429688 C 4.394531 -11.265625 4.339844 -11.097656 4.339844 -10.933594 C 4.339844 -10.382812 4.726562 -9.945312 4.726562 -9.449219 C 4.339844 -9.066406 4.121094 -7.308594 4.121094 -7.363281 C 4.121094 -3.679688 4.339844 0.273438 7.253906 0.273438 C 10.605469 0.109375 13.957031 -0.164062 17.199219 -0.164062 C 18.734375 -0.164062 20.328125 0.0546875 21.867188 0.0546875 C 23.351562 0.0546875 24.449219 -0.0546875 24.449219 -2.199219 C 24.449219 -3.515625 21.867188 -3.679688 20.273438 -3.792969 C 20 -3.625 19.726562 -3.570312 19.449219 -3.570312 C 19.175781 -3.570312 18.957031 -3.625 18.679688 -3.625 C 16.539062 -3.625 13.957031 -3.242188 12.253906 -3.242188 C 11.539062 -3.242188 10.769531 -3.296875 10.769531 -3.679688 C 10.769531 -4.285156 11.265625 -5 11.265625 -5.441406 C 11.265625 -6.042969 10.769531 -6.152344 10.328125 -6.484375 Z M 7.253906 -8.625 C 6.867188 -8.734375 6.703125 -9.011719 6.703125 -9.339844 C 6.703125 -9.503906 6.757812 -9.890625 7.03125 -9.890625 C 7.308594 -9.890625 7.417969 -9.394531 7.417969 -9.230469 C 7.417969 -9.011719 7.363281 -8.792969 7.253906 -8.570312 C 7.527344 -8.570312 7.636719 -7.910156 7.636719 -7.800781 C 7.636719 -7.582031 7.527344 -7.417969 7.363281 -7.03125 C 7.199219 -7.363281 7.089844 -7.691406 7.089844 -8.023438 C 7.089844 -8.1875 7.144531 -8.40625 7.253906 -8.625 Z M 9.121094 -12.363281 C 8.847656 -12.746094 8.734375 -12.96875 8.734375 -13.242188 C 8.734375 -13.40625 8.792969 -13.734375 9.066406 -14.066406 C 9.339844 -13.792969 9.339844 -13.515625 9.339844 -13.296875 C 9.339844 -13.132812 9.285156 -12.855469 9.121094 -12.363281 Z M 7.089844 -21.8125 C 6.867188 -22.253906 6.757812 -22.582031 6.757812 -22.96875 C 6.757812 -23.132812 6.757812 -23.570312 6.921875 -23.570312 C 6.976562 -23.570312 7.199219 -23.460938 7.199219 -23.40625 C 7.144531 -22.910156 7.144531 -22.363281 7.089844 -21.8125 Z M 8.679688 -24.230469 C 8.570312 -24.394531 8.460938 -24.558594 8.460938 -24.78125 C 8.460938 -24.835938 8.460938 -25.109375 8.625 -25.109375 C 8.792969 -25.109375 8.902344 -25 8.902344 -24.726562 C 8.902344 -24.558594 8.847656 -24.394531 8.679688 -24.230469 Z M 6.757812 -15.328125 C 6.648438 -15.21875 6.757812 -15.109375 6.59375 -15.109375 C 6.539062 -15.109375 6.484375 -15.21875 6.484375 -15.328125 C 6.539062 -15.382812 6.59375 -15.441406 6.648438 -15.441406 C 6.648438 -15.441406 6.703125 -15.382812 6.757812 -15.328125 Z M 8.792969 -21.867188 C 8.734375 -21.8125 8.679688 -21.757812 8.679688 -21.757812 C 8.625 -21.8125 8.570312 -21.921875 8.515625 -22.03125 C 8.515625 -22.03125 8.625 -22.144531 8.625 -22.144531 C 8.734375 -22.085938 8.792969 -21.976562 8.792969 -21.867188 Z M 5.824219 -8.957031 C 5.714844 -8.957031 5.660156 -8.957031 5.660156 -9.066406 C 5.660156 -9.121094 5.714844 -9.121094 5.714844 -9.121094 C 5.824219 -9.121094 5.824219 -9.011719 5.824219 -8.957031 Z M 5.824219 -8.957031 "/></g></g></g><g fill="#00ff5e" fill-opacity="1"><g transform="translate(129.893379, 206.999986)"><g><path d="M 6.484375 1.207031 C 8.40625 1.207031 9.175781 0.933594 10.441406 -2.03125 C 11.703125 -5.054688 12.855469 -8.957031 14.503906 -10.988281 C 15.933594 -12.746094 15.824219 -14.890625 18.351562 -15.441406 C 22.746094 -16.375 27.144531 -18.515625 31.265625 -18.792969 C 31.8125 -18.847656 32.253906 -19.449219 32.253906 -19.945312 C 32.253906 -20.660156 30.933594 -21.429688 30.109375 -21.429688 C 26.429688 -21.429688 22.636719 -20.660156 19.066406 -19.78125 C 16.429688 -19.121094 12.527344 -18.847656 12.527344 -17.308594 C 12.527344 -16.867188 12.417969 -16.375 12.417969 -15.933594 C 12.417969 -15.605469 12.527344 -15.21875 12.527344 -14.890625 C 12.527344 -14.121094 12.308594 -13.40625 11.703125 -12.800781 C 11.375 -12.472656 11.097656 -11.429688 10.660156 -10.878906 C 10.054688 -10.109375 8.460938 -6.867188 7.96875 -6.867188 C 7.691406 -6.867188 7.691406 -7.417969 7.691406 -7.691406 C 7.691406 -13.40625 8.792969 -18.847656 8.792969 -25 C 8.792969 -26.207031 6.097656 -26.59375 4.835938 -26.59375 C 4.285156 -26.59375 4.175781 -25.769531 4.175781 -25.273438 C 4.175781 -24.78125 4.503906 -24.230469 4.503906 -23.734375 C 4.503906 -22.96875 4.175781 -21.8125 4.121094 -20.878906 C 3.847656 -17.363281 3.792969 -13.847656 3.351562 -10.382812 C 3.351562 -10.054688 3.296875 -9.726562 3.296875 -9.394531 C 3.296875 -6.152344 3.351562 -2.691406 4.890625 0.164062 C 5.382812 0.496094 5.878906 0.824219 6.484375 1.207031 Z M 6.484375 1.207031 "/></g></g></g><g fill="#00ff5e" fill-opacity="1"><g transform="translate(156.098585, 206.999986)"><g><path d="M 3.679688 -19.394531 C 3.734375 -19.175781 3.792969 -18.957031 3.792969 -18.734375 C 3.792969 -18.515625 3.679688 -18.570312 3.625 -18.515625 C 3.570312 -18.570312 3.515625 -18.679688 3.515625 -18.792969 C 3.515625 -19.011719 3.625 -19.230469 3.734375 -19.394531 C 2.910156 -18.242188 3.132812 -16.484375 2.363281 -15.550781 C 1.648438 -14.671875 1.703125 -12.144531 1.703125 -11.042969 C 1.703125 -10.605469 2.089844 -10.164062 2.089844 -9.78125 C 2.089844 -9.503906 1.8125 -9.175781 1.8125 -8.902344 C 1.8125 -8.515625 2.03125 -8.1875 2.03125 -7.855469 C 2.03125 -7.636719 1.867188 -7.417969 1.867188 -7.253906 C 1.867188 -6.8125 2.472656 -6.375 2.472656 -5.878906 C 2.472656 -5.605469 2.363281 -5.328125 2.363281 -5.109375 C 2.363281 -4.945312 3.023438 -3.023438 3.957031 -2.527344 C 4.175781 -2.417969 4.339844 -2.144531 4.449219 -1.867188 C 5.605469 -0.164062 7.089844 -0.21875 9.230469 0 C 9.558594 -0.21875 9.890625 -0.441406 10.273438 -0.660156 C 10.441406 -0.550781 10.660156 -0.496094 10.824219 -0.496094 C 11.757812 -0.496094 15.382812 -4.945312 16.265625 -5.273438 C 17.199219 -5.605469 18.023438 -8.078125 19.558594 -8.847656 C 20.164062 -8.847656 20.441406 -9.726562 20.441406 -10.164062 C 20.441406 -10.714844 23.40625 -13.1875 23.40625 -13.1875 C 23.957031 -13.570312 25.605469 -14.230469 25.605469 -14.945312 C 25.605469 -15.382812 25.054688 -15.550781 24.726562 -15.550781 C 23.023438 -15.550781 20.714844 -12.910156 20.109375 -12.363281 C 17.253906 -9.835938 14.339844 -7.527344 11.375 -5.109375 C 10.769531 -4.617188 9.78125 -3.957031 8.957031 -3.957031 C 6.976562 -3.957031 6.8125 -8.570312 6.8125 -11.042969 C 6.8125 -11.921875 6.867188 -13.460938 7.910156 -13.460938 C 8.679688 -13.460938 9.449219 -13.242188 10.21875 -13.242188 C 13.296875 -13.242188 16.429688 -16.097656 17.03125 -17.253906 C 17.308594 -17.800781 17.691406 -18.132812 18.078125 -18.515625 C 18.515625 -19.011719 18.734375 -19.890625 19.285156 -20.164062 C 19.835938 -20.550781 20.054688 -21.097656 20.054688 -21.757812 C 20.054688 -22.085938 20 -22.417969 20 -22.800781 C 20 -22.96875 20.054688 -23.1875 20.054688 -23.351562 C 20.054688 -26.320312 15.382812 -28.40625 12.527344 -28.40625 C 11.648438 -28.40625 11.265625 -27.582031 10.550781 -27.308594 C 9.339844 -26.8125 8.625 -25.714844 7.800781 -24.890625 C 7.417969 -23.679688 5.550781 -23.1875 5.054688 -21.648438 C 4.78125 -20.769531 4.230469 -20.054688 3.679688 -19.394531 Z M 8.902344 -16.648438 C 8.023438 -16.757812 7.746094 -16.757812 7.746094 -17.144531 C 7.746094 -18.625 10.660156 -24.449219 14.285156 -24.449219 C 15.382812 -24.449219 15.605469 -22.910156 15.605469 -21.976562 C 15.605469 -18.460938 10.878906 -16.976562 8.902344 -16.648438 Z M 8.902344 -16.648438 "/></g></g></g><g fill="#00ff5e" fill-opacity="1"><g transform="translate(177.304474, 206.999986)"><g><path d="M 21.757812 5.109375 C 22.582031 4.394531 23.242188 2.582031 23.40625 2.472656 C 23.957031 2.199219 23.957031 1.8125 23.957031 1.207031 C 23.957031 0.496094 25.054688 -0.164062 25.054688 -1.265625 C 25.054688 -1.59375 24.945312 -1.976562 24.945312 -2.308594 C 24.945312 -2.253906 25.660156 -5.164062 25.714844 -5.21875 C 26.375 -5.933594 26.207031 -7.03125 27.085938 -7.910156 C 27.582031 -8.296875 27.199219 -9.121094 27.527344 -9.617188 C 28.242188 -10.054688 30.054688 -12.746094 30.054688 -13.734375 C 30.054688 -14.121094 29.78125 -14.339844 29.394531 -14.339844 C 27.253906 -14.339844 26.921875 -11.757812 25.878906 -10.660156 C 25.328125 -10.054688 25.21875 -9.617188 25.164062 -8.847656 C 25.164062 -8.460938 24.449219 -8.515625 24.285156 -8.023438 C 23.40625 -6.207031 21.375 -1.097656 20.660156 -1.097656 C 20.109375 -1.097656 20.21875 -4.285156 20.21875 -5.933594 C 20.21875 -7.691406 20.273438 -9.339844 20.714844 -10.109375 C 20.714844 -10.109375 20.714844 -10.109375 20.714844 -10.164062 C 20.714844 -10.273438 20.496094 -10.714844 20.496094 -11.042969 C 20.769531 -11.265625 21.375 -11.429688 21.375 -11.757812 C 21.375 -12.03125 20.769531 -12.472656 20.769531 -12.855469 C 20.769531 -13.078125 20.933594 -13.40625 20.933594 -13.625 C 20.933594 -13.847656 20.824219 -14.066406 20.824219 -14.230469 C 20.824219 -15.164062 21.976562 -15.550781 21.976562 -16.648438 C 21.976562 -22.03125 22.199219 -23.957031 19.671875 -23.957031 C 18.734375 -23.957031 17.582031 -23.792969 16.976562 -22.910156 C 16.703125 -22.472656 14.617188 -21.59375 13.734375 -20.550781 C 13.078125 -19.78125 12.527344 -18.734375 11.921875 -18.078125 C 9.726562 -16.539062 7.910156 -12.308594 6.539062 -12.308594 C 6.429688 -12.472656 6.320312 -12.582031 6.320312 -12.746094 C 6.320312 -13.847656 7.199219 -15.054688 7.363281 -16.097656 C 7.472656 -18.515625 7.582031 -20.933594 7.582031 -23.351562 C 7.582031 -24.617188 7.527344 -25.988281 5.878906 -25.988281 C 4.890625 -25.988281 3.1875 -25.328125 3.1875 -24.558594 C 3.1875 -22.636719 2.417969 -20.550781 2.417969 -18.679688 C 2.417969 -18.351562 2.472656 -18.078125 2.472656 -17.800781 C 2.472656 -17.417969 2.199219 -17.144531 2.199219 -16.8125 C 2.199219 -16.375 2.417969 -15.933594 2.417969 -15.496094 C 2.417969 -14.175781 2.308594 -13.132812 2.308594 -11.59375 C 2.308594 -9.175781 2.527344 -6.152344 4.671875 -6.152344 C 7.855469 -6.152344 9.230469 -8.570312 10.878906 -11.097656 C 11.648438 -12.253906 13.296875 -14.78125 13.40625 -15.714844 C 13.570312 -17.089844 16.703125 -20.054688 17.199219 -20.054688 C 17.308594 -20.054688 17.363281 -19.726562 17.363281 -19.617188 C 17.363281 -19.121094 17.144531 -18.515625 17.144531 -18.023438 C 17.144531 -17.144531 17.363281 -16.265625 17.363281 -15.382812 C 17.363281 -14.945312 17.308594 -13.625 16.648438 -13.1875 C 16.539062 -13.078125 16.429688 -12.96875 16.429688 -12.855469 C 16.429688 -12.582031 16.757812 -12.417969 16.757812 -12.089844 C 16.648438 -11.429688 16.320312 -10.714844 16.320312 -10.109375 C 16.320312 -9.671875 16.867188 -9.449219 16.867188 -9.121094 C 16.867188 -8.957031 16.757812 -8.734375 16.757812 -8.570312 C 16.757812 -8.351562 16.8125 -8.1875 16.8125 -7.96875 C 16.8125 -7.746094 15.824219 -6.207031 15.824219 -5.328125 C 15.824219 -4.617188 16.042969 -3.957031 16.042969 -3.1875 C 16.042969 -2.691406 15.988281 -2.144531 15.988281 -1.59375 C 16.097656 1.320312 17.089844 5.382812 20 5.382812 C 20.441406 5.109375 20.660156 5 20.933594 5 C 21.097656 5 21.375 5.054688 21.757812 5.109375 Z M 17.746094 -11.484375 C 17.691406 -11.375 17.636719 -11.320312 17.636719 -11.207031 C 17.527344 -11.320312 17.527344 -11.375 17.527344 -11.539062 C 17.582031 -11.59375 17.636719 -11.59375 17.636719 -11.648438 C 17.691406 -11.59375 17.746094 -11.539062 17.746094 -11.484375 Z M 19.726562 -3.078125 L 19.78125 -2.910156 L 19.671875 -2.910156 Z M 19.726562 -3.078125 "/></g></g></g><g fill="#00ff5e" fill-opacity="1"><g transform="translate(202.960307, 206.999986)"><g><path d="M 12.636719 -15.550781 C 12.855469 -16.703125 12.96875 -17.089844 12.96875 -18.40625 C 12.96875 -19.230469 13.679688 -19.835938 13.679688 -20.660156 C 13.847656 -22.03125 13.957031 -23.351562 14.121094 -24.726562 C 14.066406 -24.78125 14.066406 -24.890625 14.066406 -24.945312 C 14.066406 -25.328125 14.339844 -25.714844 14.339844 -26.097656 C 14.339844 -26.207031 14.339844 -26.375 14.285156 -26.484375 C 14.671875 -27.363281 18.351562 -29.175781 18.296875 -29.175781 C 20.109375 -29.558594 21.375 -29.558594 23.132812 -30.660156 C 23.296875 -30.769531 23.515625 -30.824219 23.734375 -30.824219 C 23.902344 -30.824219 24.121094 -30.769531 24.285156 -30.769531 C 24.617188 -30.769531 25 -31.152344 25.21875 -31.152344 C 25.496094 -31.152344 26.097656 -30.824219 26.207031 -30.824219 C 26.429688 -30.824219 27.472656 -31.8125 27.472656 -32.199219 C 27.472656 -32.363281 27.417969 -32.527344 27.308594 -32.746094 C 27.253906 -32.636719 27.144531 -32.582031 27.085938 -32.582031 C 26.484375 -32.582031 27.363281 -34.726562 25.109375 -34.726562 C 24.339844 -34.726562 24.449219 -33.734375 23.957031 -33.734375 C 23.625 -33.734375 23.351562 -34.449219 23.023438 -34.449219 C 22.363281 -34.449219 21.320312 -33.078125 20.550781 -33.078125 C 18.902344 -33.078125 16.8125 -32.03125 15.933594 -31.703125 C 15.382812 -31.921875 15.496094 -32.636719 15 -32.96875 C 15 -32.910156 15.054688 -32.855469 15.054688 -32.800781 C 15.109375 -32.855469 15.109375 -32.910156 15.109375 -32.910156 C 15.054688 -32.910156 15 -32.910156 14.945312 -32.855469 C 15.273438 -33.078125 15.382812 -33.847656 15.382812 -34.617188 C 15.382812 -36.976562 14.945312 -38.242188 13.132812 -38.242188 C 11.703125 -38.242188 11.207031 -37.417969 10.550781 -36.152344 C 10.605469 -35.660156 10.660156 -35.164062 10.660156 -34.671875 C 10.660156 -32.636719 10.496094 -29.011719 9.066406 -28.679688 C 6.921875 -28.351562 5.328125 -26.8125 5.164062 -26.8125 C 4.558594 -26.8125 3.351562 -25.824219 2.199219 -25.605469 C 1.539062 -25.496094 0 -25.496094 0 -24.890625 C 0 -23.242188 3.023438 -22.746094 3.625 -22.746094 C 6.429688 -22.746094 6.757812 -24.339844 8.40625 -24.339844 C 8.570312 -24.449219 8.570312 -24.671875 8.957031 -24.671875 C 9.339844 -24.671875 9.617188 -24.394531 9.617188 -24.066406 C 9.617188 -23.847656 9.558594 -23.625 9.558594 -23.40625 C 9.558594 -23.078125 9.890625 -22.800781 9.890625 -22.472656 C 9.890625 -22.308594 9.835938 -22.144531 9.78125 -22.03125 C 9.230469 -20.988281 9.066406 -19.945312 9.066406 -18.902344 C 9.066406 -18.570312 9.121094 -18.1875 9.121094 -17.910156 C 9.121094 -17.472656 8.957031 -17.03125 8.957031 -16.648438 C 8.957031 -16.097656 9.121094 -15.550781 9.121094 -15 C 9.121094 -14.835938 9.066406 -14.671875 9.066406 -14.558594 C 9.066406 -14.339844 9.617188 -14.011719 9.617188 -13.679688 C 9.617188 -13.242188 8.847656 -13.132812 8.847656 -12.800781 C 8.847656 -12.363281 9.78125 -12.691406 9.78125 -11.867188 L 9.78125 -11.921875 C 10.21875 -12.144531 10.273438 -12.582031 10.273438 -13.078125 C 10.273438 -13.460938 10.21875 -13.847656 10.21875 -14.230469 C 10.21875 -15.21875 11.042969 -15.878906 11.042969 -16.097656 C 11.042969 -16.59375 10.273438 -17.308594 10.273438 -17.746094 C 10.273438 -18.1875 10.605469 -18.460938 11.097656 -18.957031 C 11.042969 -18.902344 11.042969 -18.847656 11.042969 -18.847656 C 11.097656 -18.902344 11.097656 -18.847656 11.097656 -18.957031 C 11.097656 -18.957031 11.042969 -18.902344 10.988281 -18.902344 C 10.988281 -18.242188 11.320312 -16.207031 11.8125 -16.207031 C 12.03125 -16.207031 12.199219 -16.265625 12.308594 -16.265625 C 12.582031 -16.265625 12.582031 -16.097656 12.636719 -15.550781 Z M 11.320312 -20.328125 C 11.265625 -20.382812 11.207031 -20.382812 11.207031 -20.382812 C 11.207031 -20.441406 11.207031 -20.550781 11.265625 -20.550781 C 11.320312 -20.550781 11.375 -20.550781 11.375 -20.496094 C 11.375 -20.441406 11.320312 -20.382812 11.320312 -20.328125 Z M 11.59375 -22.746094 C 11.757812 -22.746094 11.757812 -22.636719 11.757812 -22.582031 C 11.703125 -22.527344 11.648438 -22.472656 11.648438 -22.472656 C 11.59375 -22.472656 11.539062 -22.527344 11.539062 -22.636719 C 11.539062 -22.691406 11.59375 -22.746094 11.59375 -22.746094 Z M 11.539062 -12.746094 C 11.539062 -12.746094 11.59375 -12.800781 11.59375 -12.800781 C 11.59375 -12.308594 11.429688 -11.8125 11.429688 -11.320312 C 11.429688 -11.097656 11.539062 -10.878906 11.539062 -10.660156 C 11.539062 -9.945312 10.878906 -9.121094 10.878906 -8.902344 C 10.878906 -8.515625 11.429688 -8.023438 11.429688 -7.472656 C 11.429688 -6.976562 11.042969 -6.539062 11.042969 -5.988281 C 11.042969 -5.878906 11.097656 -5.714844 11.097656 -5.605469 C 11.097656 -5.382812 10.933594 -4.890625 10.769531 -4.890625 C 10.164062 -4.890625 10.054688 -6.265625 10.054688 -7.636719 C 10.054688 -8.1875 10.109375 -8.679688 10.109375 -9.121094 C 10.109375 -9.890625 10.054688 -10.441406 9.890625 -10.441406 C 9.617188 -10.328125 9.617188 -10.054688 9.617188 -9.835938 C 9.617188 -9.617188 9.671875 -9.449219 9.671875 -9.230469 C 9.671875 -8.792969 9.503906 -8.351562 9.285156 -8.023438 L 9.339844 -8.023438 C 9.726562 -7.855469 9.890625 -7.746094 9.890625 -7.527344 C 9.890625 -7.03125 9.394531 -6.648438 9.175781 -6.648438 C 8.792969 -6.648438 8.625 -7.03125 8.40625 -7.03125 C 7.855469 -7.03125 7.855469 -5.164062 7.472656 -4.449219 C 7.472656 -4.339844 7.746094 -4.121094 7.855469 -4.121094 C 8.296875 -4.121094 8.570312 -5.824219 9.011719 -5.824219 C 9.230469 -5.824219 9.285156 -5.605469 9.394531 -5.441406 C 9.394531 -4.835938 8.679688 -4.230469 8.679688 -3.460938 C 8.679688 -3.242188 8.734375 -3.023438 8.734375 -2.800781 C 8.734375 -1.757812 7.527344 0 7.527344 0.21875 C 7.527344 0.878906 8.1875 2.417969 8.1875 2.636719 C 8.1875 2.800781 8.132812 3.023438 8.132812 3.1875 C 8.132812 4.121094 9.394531 5.441406 9.394531 6.59375 C 9.339844 6.757812 9.339844 6.867188 9.339844 6.976562 C 9.339844 7.636719 10.660156 8.957031 12.089844 8.957031 C 12.472656 8.957031 13.957031 8.734375 14.230469 7.910156 C 14.230469 7.800781 14.558594 7.691406 14.726562 7.691406 C 14.835938 7.691406 14.945312 7.746094 15.054688 7.746094 C 15.164062 7.746094 16.757812 6.265625 16.8125 6.042969 C 16.976562 5.441406 17.636719 5.550781 17.636719 4.945312 C 17.800781 4.175781 17.855469 4.121094 18.734375 4.121094 C 18.792969 4.121094 19.011719 4.285156 19.121094 4.285156 C 19.394531 4.285156 19.285156 3.296875 19.339844 2.855469 C 19.503906 1.921875 20.769531 2.03125 20.769531 0.21875 C 20.769531 -0.878906 20.441406 -2.199219 20.441406 -3.40625 C 20.441406 -4.066406 20.496094 -4.726562 20.605469 -5.382812 C 21.152344 -5.988281 21.375 -6.207031 21.375 -6.59375 C 21.375 -6.8125 21.265625 -7.03125 21.152344 -7.472656 C 19.617188 -5.273438 18.078125 -3.296875 16.8125 -0.988281 C 15.933594 0.605469 14.121094 3.734375 13.242188 3.734375 C 11.539062 3.734375 12.96875 1.265625 11.8125 0.605469 C 11.59375 0.496094 11.539062 0 11.539062 -0.164062 C 11.539062 -0.769531 12.199219 -0.933594 12.199219 -1.320312 C 12.199219 -1.867188 11.59375 -2.199219 11.59375 -2.746094 C 11.59375 -5.164062 12.089844 -7.417969 12.089844 -10 C 12.089844 -10.273438 11.976562 -10.605469 11.976562 -10.878906 C 11.976562 -11.539062 12.363281 -12.03125 12.582031 -12.746094 C 12.308594 -12.746094 12.089844 -12.636719 11.8125 -12.636719 C 11.757812 -12.636719 11.648438 -12.636719 11.539062 -12.746094 Z M 10.273438 -2.691406 C 10.328125 -3.1875 10.164062 -3.734375 10.769531 -4.011719 C 10.988281 -4.011719 11.097656 -3.1875 11.097656 -2.910156 C 11.097656 -2.472656 10.878906 -1.539062 10.21875 -1.539062 C 10.164062 -1.539062 10.109375 -1.648438 10.109375 -1.703125 C 10.164062 -2.03125 10.21875 -2.363281 10.273438 -2.691406 Z M 18.351562 3.132812 C 18.132812 3.023438 17.800781 3.132812 17.800781 2.691406 C 17.910156 2.472656 17.96875 2.308594 18.242188 2.308594 C 18.515625 2.308594 18.734375 2.472656 18.734375 2.746094 C 18.734375 3.1875 18.734375 3.132812 18.351562 3.132812 Z M 18.847656 0.878906 C 18.679688 1.152344 18.570312 1.207031 18.40625 1.207031 C 18.242188 1.097656 18.078125 0.988281 18.078125 0.878906 C 18.078125 0.605469 18.1875 0.496094 18.351562 0.496094 C 18.515625 0.496094 18.679688 0.769531 18.847656 0.878906 Z M 20.109375 -2.308594 C 20.054688 -2.308594 20.054688 -2.253906 20 -2.253906 C 19.890625 -2.253906 19.835938 -2.417969 19.835938 -2.527344 C 19.835938 -2.582031 19.890625 -2.691406 20 -2.691406 C 20.054688 -2.691406 20.109375 -2.472656 20.109375 -2.308594 Z M 17.199219 4.285156 C 17.199219 4.449219 17.199219 4.558594 17.03125 4.558594 C 16.921875 4.558594 16.921875 4.339844 16.921875 4.230469 C 16.976562 4.175781 17.03125 4.121094 17.089844 4.121094 C 17.144531 4.175781 17.199219 4.230469 17.199219 4.285156 Z M 18.570312 -1.265625 C 18.625 -1.375 18.679688 -1.484375 18.734375 -1.59375 C 18.734375 -1.539062 18.847656 -1.484375 18.847656 -1.429688 C 18.792969 -1.320312 18.734375 -1.265625 18.679688 -1.152344 C 18.679688 -1.207031 18.625 -1.207031 18.570312 -1.265625 Z M 12.582031 -15.605469 C 12.582031 -15.605469 12.636719 -15.550781 12.636719 -15.550781 C 11.921875 -15.328125 11.59375 -15.382812 11.375 -14.175781 C 11.207031 -14.285156 10.988281 -14.394531 10.878906 -14.617188 C 10.605469 -14.066406 10.660156 -13.351562 10.660156 -12.691406 C 10.660156 -12.582031 10.824219 -12.417969 10.988281 -12.417969 C 11.152344 -12.417969 11.375 -12.636719 11.59375 -12.800781 C 11.59375 -12.800781 11.539062 -12.746094 11.539062 -12.746094 C 11.539062 -13.515625 12.855469 -13.734375 12.855469 -14.726562 C 12.855469 -15 12.746094 -15.273438 12.582031 -15.605469 Z M 23.625 -11.976562 C 23.902344 -11.8125 24.230469 -11.484375 24.558594 -11.484375 C 25.328125 -11.484375 25.878906 -13.078125 25.878906 -13.957031 C 25.878906 -14.066406 25.769531 -14.121094 25.660156 -14.121094 C 24.558594 -14.121094 24.503906 -12.527344 23.625 -11.976562 Z M 35.824219 -22.96875 C 36.976562 -23.351562 37.253906 -23.351562 37.253906 -24.558594 C 37.253906 -24.671875 37.03125 -24.78125 36.976562 -24.78125 C 36.207031 -24.726562 35.328125 -24.230469 35.328125 -23.40625 C 35.328125 -23.078125 35.605469 -22.96875 35.824219 -22.96875 Z M 28.296875 -16.484375 C 28.515625 -16.484375 29.066406 -17.144531 29.066406 -17.363281 C 29.066406 -17.527344 28.902344 -17.746094 28.679688 -17.746094 C 28.296875 -17.746094 28.078125 -17.253906 28.078125 -17.03125 C 28.078125 -16.8125 28.078125 -16.703125 28.296875 -16.484375 Z M 8.296875 -10.164062 C 8.296875 -9.503906 8.242188 -9.175781 8.460938 -9.175781 C 8.570312 -9.230469 8.625 -9.394531 8.625 -9.449219 C 8.625 -9.726562 8.460938 -9.835938 8.296875 -10.164062 Z M 26.921875 -15 C 26.976562 -15.054688 26.976562 -15.109375 26.976562 -15.164062 C 26.976562 -15.21875 26.867188 -15.328125 26.703125 -15.328125 C 26.59375 -15.328125 26.539062 -15.273438 26.484375 -15.164062 C 26.484375 -15.054688 26.539062 -14.945312 26.59375 -14.835938 C 26.703125 -14.890625 26.8125 -14.945312 26.921875 -15 Z M 22.417969 -8.847656 C 22.199219 -8.847656 22.03125 -8.679688 22.03125 -8.570312 C 22.03125 -8.460938 22.199219 -8.351562 22.472656 -8.351562 C 22.691406 -8.351562 22.855469 -8.460938 22.855469 -8.625 C 22.855469 -8.792969 22.691406 -8.847656 22.417969 -8.847656 Z M 32.144531 -21.042969 C 32.199219 -21.042969 32.199219 -20.988281 32.253906 -20.988281 C 32.363281 -20.988281 32.472656 -21.207031 32.472656 -21.320312 C 32.472656 -21.429688 32.363281 -21.59375 32.253906 -21.59375 C 32.144531 -21.59375 31.976562 -21.484375 31.976562 -21.320312 C 31.976562 -21.265625 32.085938 -21.152344 32.144531 -21.042969 Z M 30.824219 -20.109375 C 30.988281 -20.109375 31.207031 -19.945312 31.375 -19.945312 C 31.484375 -19.945312 31.59375 -20.054688 31.59375 -20.164062 C 31.484375 -20.328125 31.375 -20.382812 31.207031 -20.382812 C 31.042969 -20.382812 30.933594 -20.21875 30.824219 -20.109375 Z M 30.769531 -20.21875 C 30.769531 -20.21875 30.824219 -20.109375 30.824219 -20.109375 C 30.605469 -20 30.273438 -19.78125 30.273438 -19.617188 C 30.273438 -19.558594 30.328125 -19.503906 30.441406 -19.503906 C 30.660156 -19.503906 30.714844 -20 30.769531 -20.21875 Z M 22.085938 -6.648438 C 22.085938 -6.703125 22.085938 -6.757812 22.03125 -6.8125 C 22.03125 -6.757812 21.921875 -6.757812 21.921875 -6.703125 C 21.921875 -6.648438 21.976562 -6.59375 21.976562 -6.539062 C 22.03125 -6.59375 22.085938 -6.59375 22.085938 -6.648438 Z M 9.339844 -11.320312 C 9.230469 -11.265625 8.902344 -11.320312 8.734375 -11.152344 C 8.847656 -11.097656 8.957031 -10.933594 9.011719 -10.933594 C 9.230469 -10.933594 9.339844 -11.097656 9.339844 -11.320312 Z M 9.78125 -11.921875 C 9.617188 -11.703125 9.503906 -11.539062 9.339844 -11.320312 C 9.339844 -11.320312 9.394531 -11.265625 9.394531 -11.265625 C 9.558594 -11.484375 9.726562 -11.648438 9.78125 -11.921875 Z M 9.339844 -8.023438 C 9.339844 -8.023438 9.285156 -8.023438 9.285156 -8.023438 C 9.339844 -8.023438 9.339844 -8.023438 9.394531 -8.023438 C 9.339844 -7.96875 9.339844 -7.96875 9.285156 -7.96875 C 9.285156 -7.96875 9.339844 -8.023438 9.339844 -8.023438 Z M 9.339844 -8.023438 "/></g></g></g><g fill="#00ff5e" fill-opacity="1"><g transform="translate(247.535878, 207.011545)"><g><path d="M 6.128906 0.707031 C 6.191406 0.707031 6.25 0.726562 6.289062 0.726562 C 6.660156 0.726562 6.445312 0.3125 6.738281 0.15625 C 7.507812 -0.234375 7.449219 -1.082031 7.996094 -1.492188 C 7.957031 -1.472656 8.863281 -3.105469 9.253906 -3.929688 C 9.765625 -4.183594 10.316406 -4.105469 10.90625 -4.164062 C 11.042969 -4.304688 11.339844 -4.539062 11.339844 -4.65625 C 11.339844 -4.933594 11.023438 -4.972656 10.710938 -4.972656 C 10.414062 -4.972656 10.21875 -4.953125 10 -4.953125 C 9.902344 -4.953125 9.804688 -4.972656 9.707031 -5.03125 C 9.765625 -5.265625 9.746094 -5.5625 9.882812 -5.738281 C 10.0625 -5.933594 10.589844 -8.785156 10.609375 -8.785156 C 10.609375 -9.980469 10.140625 -10.472656 9.433594 -10.472656 C 9.253906 -10.472656 9.039062 -10.355469 8.863281 -10.355469 C 8.804688 -10.355469 8.746094 -10.375 8.703125 -10.375 C 8.390625 -10.375 7.859375 -9.648438 7.546875 -9.453125 C 5.953125 -8.46875 4.246094 -7.054688 2.847656 -6.738281 C 2.671875 -6.738281 2.515625 -7.054688 2.515625 -7.230469 C 2.515625 -7.625 2.847656 -8.175781 2.847656 -8.566406 C 2.847656 -9.058594 3.066406 -9.058594 3.164062 -9.375 C 3.242188 -10.160156 4.125 -11.277344 4.636719 -11.808594 C 5.246094 -12.457031 6.109375 -13.144531 6.820312 -13.144531 C 7.425781 -13.144531 8.054688 -12.496094 8.449219 -12.496094 C 8.625 -12.496094 8.960938 -12.59375 8.960938 -12.8125 C 8.960938 -13.539062 7.957031 -13.753906 7.449219 -14.03125 C 7.015625 -14.246094 6.601562 -14.539062 6.089844 -14.5625 C 5.972656 -14.5625 5.855469 -14.699219 5.757812 -14.699219 C 5.5625 -14.699219 5.5625 -14.460938 5.109375 -14.460938 C 4.753906 -14.460938 4.8125 -14.148438 4.578125 -14.050781 C 4.363281 -13.953125 3.949219 -13.914062 3.890625 -13.675781 C 3.792969 -13.363281 2.847656 -12.949219 2.75 -12.734375 C 2.613281 -12.417969 2.398438 -12.535156 2.339844 -12.222656 C 2.339844 -12.105469 2.28125 -12.007812 2.179688 -11.988281 C 1.925781 -11.886719 2.042969 -11.652344 1.984375 -11.457031 C 1.730469 -11.238281 1.375 -11.003906 1.375 -10.710938 C 1.375 -10.589844 1.453125 -10.492188 1.453125 -10.335938 C 0.804688 -9.6875 0.902344 -9.019531 0.6875 -8.3125 C 0.609375 -8.074219 0.492188 -7.839844 0.492188 -7.585938 C 0.492188 -7.527344 0.511719 -7.488281 0.511719 -7.425781 C 0.511719 -7.269531 0.394531 -7.152344 0.394531 -7.015625 C 0.394531 -6.089844 1.589844 -5.582031 1.589844 -5.601562 C 1.769531 -5.34375 2.21875 -5.207031 2.398438 -5.207031 C 2.574219 -5.207031 2.730469 -5.285156 2.886719 -5.285156 C 3.007812 -5.285156 3.085938 -5.089844 3.183594 -5.089844 C 3.242188 -5.089844 3.28125 -5.109375 3.339844 -5.167969 C 3.398438 -5.148438 3.457031 -5.128906 3.515625 -5.128906 C 3.988281 -5.128906 4.480469 -5.5625 4.636719 -5.5625 C 5.03125 -5.5625 5.738281 -6.445312 5.914062 -6.679688 C 6.070312 -6.878906 6.347656 -6.878906 6.425781 -7.035156 C 6.523438 -7.328125 7.035156 -7.722656 7.113281 -7.722656 C 7.171875 -7.722656 7.25 -7.625 7.308594 -7.625 C 7.425781 -7.625 7.761719 -8.035156 7.957031 -8.253906 C 8.074219 -7.976562 8.273438 -7.703125 8.273438 -7.269531 C 8.273438 -7.035156 8.15625 -6.777344 8.15625 -6.542969 C 8.15625 -6.367188 8.195312 -6.191406 8.195312 -6.03125 C 8.195312 -5.71875 7.996094 -4.992188 7.761719 -4.539062 C 6.25 -3.871094 5.363281 -3.242188 4.125 -1.808594 C 3.535156 -1.121094 2.75 0.0585938 2.75 0.882812 C 2.75 1.652344 3.8125 1.730469 4.125 1.730469 C 4.519531 1.730469 4.992188 1.730469 5.304688 1.394531 C 5.621094 1.082031 5.738281 1.511719 6.128906 0.707031 Z M 5.71875 0.433594 C 5.226562 0.433594 4.832031 0.785156 4.382812 0.785156 C 4.285156 0.785156 4.105469 0.785156 4.046875 0.707031 C 4.144531 -0.882812 5.972656 -2.339844 6.640625 -2.929688 C 6.878906 -3.144531 7.25 -3.4375 7.46875 -3.4375 C 7.585938 -3.4375 7.664062 -3.339844 7.664062 -3.242188 C 7.625 -3.066406 7.585938 -2.90625 7.527344 -2.75 C 7.566406 -2.75 7.585938 -2.730469 7.585938 -2.710938 C 7.566406 -2.710938 7.566406 -2.730469 7.546875 -2.769531 C 7.347656 -2.59375 7.289062 -2.359375 7.289062 -2.101562 C 7.289062 -1.984375 7.308594 -1.867188 7.308594 -1.730469 C 6.839844 -1.335938 6.523438 -0.824219 6.347656 -0.195312 C 6.070312 0 5.894531 0.117188 5.699219 0.414062 C 5.71875 0.414062 5.738281 0.414062 5.757812 0.394531 C 5.738281 0.375 5.738281 0.375 5.71875 0.375 C 5.71875 0.375 5.699219 0.375 5.699219 0.394531 C 5.699219 0.414062 5.71875 0.414062 5.71875 0.433594 Z M 7.9375 -3.320312 C 7.917969 -3.300781 7.917969 -3.28125 7.898438 -3.28125 C 7.898438 -3.300781 7.878906 -3.320312 7.878906 -3.320312 C 7.878906 -3.339844 7.898438 -3.359375 7.917969 -3.378906 C 7.917969 -3.359375 7.9375 -3.339844 7.9375 -3.320312 Z M 7.9375 -3.320312 "/></g></g></g><g fill="#00ff5e" fill-opacity="1"><g transform="translate(259.261299, 207.011545)"><g><path d="M 9.980469 -10.082031 C 9.921875 -10.199219 9.824219 -10.296875 9.824219 -10.433594 C 9.824219 -10.472656 9.84375 -10.511719 9.84375 -10.570312 C 9.84375 -10.628906 9.785156 -10.75 9.785156 -10.828125 C 9.785156 -10.984375 10.101562 -10.867188 10.160156 -11.082031 C 10.335938 -12.378906 10.628906 -13.105469 10.628906 -13.363281 C 10.628906 -14.148438 10.316406 -14.285156 9.53125 -14.285156 C 8.921875 -14.285156 8.234375 -14.207031 8.234375 -13.519531 C 8.234375 -12.773438 7.605469 -11.277344 7.546875 -10.511719 C 7.546875 -9.941406 7.230469 -9.453125 7.230469 -8.960938 C 7.230469 -8.84375 7.25 -8.683594 7.25 -8.585938 C 7.25 -8.117188 7.074219 -8.449219 6.425781 -8.015625 C 6.089844 -7.78125 5.460938 -7.683594 5.050781 -7.585938 C 4.578125 -7.46875 4.226562 -7.113281 3.535156 -7.074219 C 3.4375 -7.074219 3.359375 -7.132812 3.261719 -7.132812 C 3.085938 -7.132812 3.125 -6.917969 2.949219 -6.917969 C 2.886719 -6.917969 2.867188 -6.996094 2.867188 -7.054688 C 2.867188 -7.46875 3.359375 -7.488281 3.359375 -7.898438 C 3.359375 -7.957031 3.320312 -8.035156 3.320312 -8.097656 C 3.320312 -8.214844 3.417969 -8.332031 3.417969 -8.429688 C 3.417969 -8.566406 3.320312 -8.722656 3.320312 -8.882812 C 3.320312 -9.136719 3.617188 -9.351562 3.617188 -9.550781 C 3.617188 -9.609375 3.578125 -9.6875 3.578125 -9.765625 C 3.578125 -9.882812 3.695312 -10 3.695312 -10.121094 C 3.695312 -10.257812 3.578125 -10.355469 3.578125 -10.492188 C 3.578125 -10.984375 4.007812 -11.535156 4.007812 -11.886719 C 4.007812 -12.085938 3.636719 -11.886719 3.636719 -12.144531 C 3.714844 -12.515625 3.734375 -12.851562 3.734375 -13.304688 C 3.734375 -13.714844 3.675781 -14.128906 3.339844 -14.128906 C 2.929688 -14.128906 2.257812 -13.992188 1.984375 -13.851562 C 1.925781 -13.421875 1.964844 -13.007812 1.828125 -12.59375 C 1.828125 -12.574219 1.808594 -12.554688 1.808594 -12.515625 C 1.808594 -12.339844 1.847656 -12.183594 1.847656 -12.007812 C 1.847656 -11.75 1.789062 -11.515625 1.789062 -11.257812 C 1.789062 -11.003906 2.0625 -10.925781 2.0625 -10.769531 C 2.0625 -10.730469 2.042969 -10.671875 2.023438 -10.648438 C 1.769531 -10.296875 1.730469 -9.785156 1.730469 -9.292969 C 1.730469 -9.058594 1.75 -8.84375 1.75 -8.625 C 1.75 -8.371094 1.730469 -8.136719 1.671875 -7.976562 C 1.492188 -7.527344 1.550781 -6.679688 1.394531 -6.484375 C 1.238281 -6.308594 1.179688 -6.109375 1.179688 -5.914062 C 1.179688 -5.460938 1.257812 -4.914062 1.257812 -4.421875 C 1.257812 -4.144531 1.199219 -3.890625 1.199219 -3.636719 C 1.199219 -3.457031 1.238281 -3.28125 1.238281 -3.105469 C 1.238281 -2.96875 1.21875 -2.847656 1.21875 -2.730469 C 1.21875 -2.21875 1.296875 -1.691406 1.316406 -1.179688 C 1.277344 -1.082031 1.277344 -1.003906 1.277344 -0.921875 C 1.277344 -0.550781 1.472656 -0.234375 1.472656 0.175781 C 1.472656 0.628906 1.75 0.984375 1.75 1.414062 C 1.75 1.453125 1.730469 1.492188 1.730469 1.53125 C 1.730469 1.847656 2.257812 2.238281 2.4375 2.238281 C 2.789062 2.238281 3.164062 1.355469 3.164062 0.902344 C 3.164062 0.609375 2.988281 0.335938 2.988281 0 C 2.988281 -0.492188 2.828125 -0.960938 2.789062 -1.453125 C 2.671875 -1.316406 2.671875 -1.121094 2.476562 -1.121094 C 2.320312 -1.121094 2.398438 -1.589844 2.378906 -1.589844 C 2.378906 -2.003906 2.101562 -1.789062 2.101562 -2.828125 C 2.101562 -3.007812 2.320312 -3.144531 2.320312 -3.28125 C 2.320312 -3.457031 2.0625 -3.457031 2.023438 -3.636719 C 2.023438 -3.929688 2.003906 -4.226562 1.984375 -4.519531 C 2.121094 -4.714844 2.238281 -4.894531 2.359375 -5.070312 C 2.238281 -5.03125 2.140625 -4.992188 2.023438 -4.953125 C 2.023438 -4.953125 1.984375 -5.011719 1.984375 -5.050781 C 1.984375 -5.070312 2.003906 -5.109375 2.023438 -5.109375 C 2.4375 -5.109375 2.320312 -4.714844 2.476562 -4.714844 C 2.496094 -4.714844 2.515625 -4.753906 2.515625 -4.792969 C 2.515625 -4.832031 2.496094 -4.894531 2.496094 -4.933594 C 2.496094 -5.070312 2.535156 -5.207031 2.632812 -5.207031 C 2.691406 -5.207031 2.75 -5.011719 2.789062 -5.011719 C 2.929688 -5.011719 3.261719 -5.738281 3.792969 -5.738281 C 4.402344 -5.738281 5.875 -6.5625 6.386719 -6.5625 C 6.621094 -6.5625 6.679688 -5.679688 6.820312 -5.402344 C 6.839844 -5.34375 6.859375 -5.285156 6.859375 -5.207031 C 6.859375 -4.933594 6.679688 -4.675781 6.679688 -4.34375 C 6.679688 -4.007812 7.367188 -3.398438 7.367188 -3.242188 C 7.367188 -3.105469 7.171875 -3.046875 7.074219 -2.96875 C 7.015625 -3.046875 6.976562 -3.125 6.898438 -3.242188 C 6.820312 -2.988281 6.660156 -2.769531 6.660156 -2.613281 C 6.660156 -1.652344 6.898438 -0.863281 6.957031 0.136719 C 6.976562 0.355469 7.171875 0.609375 7.367188 0.609375 C 7.859375 0.609375 8.429688 -0.921875 8.429688 -1.101562 C 8.429688 -1.453125 8.15625 -1.90625 8.15625 -2.121094 C 8.15625 -2.339844 8.410156 -2.554688 8.410156 -2.710938 C 8.410156 -2.886719 8.253906 -2.886719 8.214844 -2.929688 C 8.214844 -3.222656 8.410156 -3.300781 8.410156 -3.558594 C 8.410156 -3.597656 8.390625 -3.65625 8.390625 -3.695312 C 8.390625 -3.753906 8.410156 -3.792969 8.429688 -3.8125 C 8.605469 -4.066406 8.644531 -4.382812 8.644531 -4.695312 C 8.644531 -4.992188 8.605469 -5.265625 8.605469 -5.503906 C 8.605469 -5.796875 8.664062 -5.992188 8.960938 -5.992188 C 9 -5.992188 9.039062 -5.894531 9.117188 -5.757812 C 9.253906 -6.40625 9.292969 -7.035156 9.902344 -7.40625 C 10.296875 -7.644531 10.710938 -8.273438 10.710938 -8.585938 C 10.710938 -8.664062 10.648438 -8.960938 10.492188 -8.960938 C 10.355469 -8.960938 10.296875 -8.625 9.863281 -8.625 C 9.707031 -8.625 9.628906 -8.703125 9.628906 -8.960938 C 9.628906 -9.414062 9.667969 -9.707031 9.980469 -10.082031 Z M 8.507812 -8.902344 C 8.507812 -8.882812 8.488281 -8.882812 8.488281 -8.882812 C 8.507812 -8.882812 8.507812 -8.882812 8.527344 -8.882812 L 8.507812 -8.84375 C 8.507812 -8.84375 8.507812 -8.902344 8.507812 -8.902344 Z M 8.054688 -4.144531 C 8.015625 -4.207031 7.957031 -4.265625 7.917969 -4.324219 C 7.917969 -4.34375 7.957031 -4.460938 8.015625 -4.460938 C 8.054688 -4.421875 8.097656 -4.382812 8.097656 -4.34375 C 8.097656 -4.285156 8.054688 -4.207031 8.035156 -4.144531 C 8.074219 -4.046875 8.195312 -3.988281 8.195312 -3.890625 C 8.195312 -3.8125 8.15625 -3.792969 8.074219 -3.753906 C 8.054688 -3.753906 7.996094 -3.8125 7.996094 -3.851562 C 7.996094 -3.949219 8.035156 -4.066406 8.054688 -4.144531 Z M 2.515625 -6.777344 C 2.535156 -6.757812 2.535156 -6.738281 2.535156 -6.71875 C 2.535156 -6.699219 2.535156 -6.679688 2.515625 -6.660156 C 2.496094 -6.660156 2.476562 -6.679688 2.457031 -6.679688 C 2.476562 -6.71875 2.515625 -6.738281 2.535156 -6.757812 C 2.378906 -6.898438 2.238281 -7.132812 2.238281 -7.308594 C 2.238281 -7.425781 2.359375 -7.527344 2.496094 -7.566406 C 2.652344 -7.566406 2.652344 -7.308594 2.652344 -7.171875 C 2.652344 -7.054688 2.652344 -6.777344 2.515625 -6.777344 Z M 1.769531 -1.632812 C 1.769531 -1.589844 1.789062 -1.609375 1.789062 -1.609375 C 1.492188 -1.886719 1.511719 -2.140625 1.511719 -2.496094 C 1.511719 -2.691406 1.53125 -2.929688 1.691406 -3.027344 C 1.730469 -3.027344 1.75 -3.007812 1.75 -2.96875 C 1.75 -2.90625 1.710938 -2.847656 1.710938 -2.808594 C 1.710938 -2.632812 1.925781 -2.398438 1.925781 -2.160156 C 1.925781 -1.984375 1.769531 -1.769531 1.769531 -1.632812 Z M 7.996094 -2.140625 C 7.976562 -2.0625 7.976562 -1.847656 7.820312 -1.769531 C 7.625 -1.769531 7.625 -1.945312 7.625 -2.082031 C 7.625 -2.21875 7.703125 -2.535156 7.859375 -2.535156 C 7.976562 -2.535156 7.957031 -2.339844 7.996094 -2.140625 Z M 1.867188 -1.082031 C 1.925781 -0.863281 1.964844 -0.628906 1.964844 -0.414062 C 1.964844 -0.292969 1.925781 -0.175781 1.925781 -0.078125 C 1.867188 -0.0976562 1.671875 -0.726562 1.671875 -0.941406 C 1.671875 -0.984375 1.730469 -1.042969 1.867188 -1.082031 Z M 1.789062 -5.050781 C 1.75 -5.011719 1.710938 -4.972656 1.691406 -4.953125 C 1.550781 -4.953125 1.570312 -5.285156 1.570312 -5.34375 C 1.570312 -5.34375 1.609375 -5.382812 1.632812 -5.382812 C 1.789062 -5.304688 1.769531 -5.148438 1.789062 -5.050781 Z M 7.386719 -1.570312 C 7.425781 -1.570312 7.425781 -1.511719 7.425781 -1.453125 C 7.425781 -1.316406 7.425781 -1.160156 7.328125 -1.160156 C 7.210938 -1.160156 7.152344 -1.316406 7.152344 -1.375 C 7.152344 -1.472656 7.230469 -1.570312 7.386719 -1.570312 Z M 2.929688 -8.585938 C 2.949219 -8.507812 2.96875 -8.429688 2.96875 -8.351562 C 2.96875 -8.292969 2.949219 -8.234375 2.929688 -8.175781 C 2.886719 -8.253906 2.886719 -8.292969 2.886719 -8.351562 C 2.886719 -8.410156 2.886719 -8.46875 2.929688 -8.585938 Z M 3.007812 -10.140625 C 2.929688 -10.140625 2.886719 -10.160156 2.886719 -10.238281 C 2.886719 -10.335938 3.046875 -10.433594 3.046875 -10.433594 C 3.125 -10.433594 3.144531 -10.335938 3.144531 -10.296875 C 3.144531 -10.199219 3.085938 -10.160156 3.007812 -10.140625 Z M 7.09375 -4.460938 C 7.09375 -4.421875 7.054688 -4.402344 7.015625 -4.363281 C 7.015625 -4.402344 6.976562 -4.441406 6.976562 -4.480469 C 6.976562 -4.519531 7.015625 -4.539062 7.054688 -4.578125 C 7.074219 -4.539062 7.09375 -4.5 7.09375 -4.460938 Z M 8.117188 -5.460938 C 8.097656 -5.402344 8.074219 -5.324219 8.015625 -5.324219 C 7.976562 -5.324219 7.9375 -5.34375 7.9375 -5.402344 C 7.9375 -5.460938 7.996094 -5.523438 8.054688 -5.523438 C 8.074219 -5.523438 8.117188 -5.503906 8.117188 -5.460938 Z M 8.054688 -4.734375 C 8.035156 -4.734375 8.015625 -4.714844 7.996094 -4.714844 C 7.996094 -4.714844 7.976562 -4.753906 7.976562 -4.753906 C 7.976562 -4.753906 7.996094 -4.792969 8.035156 -4.792969 C 8.035156 -4.792969 8.054688 -4.792969 8.074219 -4.773438 C 8.074219 -4.773438 8.054688 -4.753906 8.054688 -4.734375 Z M 9.453125 -9.628906 C 9.433594 -9.609375 9.433594 -9.589844 9.414062 -9.589844 C 9.394531 -9.589844 9.375 -9.609375 9.375 -9.609375 C 9.375 -9.648438 9.394531 -9.6875 9.394531 -9.707031 C 9.453125 -9.707031 9.453125 -9.648438 9.453125 -9.628906 Z M 2.929688 -9.195312 C 2.929688 -9.175781 2.929688 -9.15625 2.90625 -9.136719 C 2.90625 -9.15625 2.886719 -9.175781 2.886719 -9.195312 C 2.886719 -9.214844 2.90625 -9.234375 2.90625 -9.253906 C 2.929688 -9.234375 2.929688 -9.214844 2.929688 -9.195312 Z M 2.613281 -8.625 C 2.59375 -8.664062 2.554688 -8.703125 2.554688 -8.746094 C 2.554688 -8.785156 2.59375 -8.824219 2.613281 -8.863281 C 2.632812 -8.824219 2.671875 -8.785156 2.671875 -8.746094 C 2.671875 -8.703125 2.632812 -8.664062 2.613281 -8.625 Z M 2.160156 -0.335938 C 2.160156 -0.335938 2.199219 -0.3125 2.199219 -0.3125 C 2.199219 -0.292969 2.179688 -0.273438 2.179688 -0.253906 C 2.160156 -0.273438 2.140625 -0.273438 2.140625 -0.273438 C 2.140625 -0.292969 2.140625 -0.3125 2.160156 -0.335938 Z M 7.9375 -3.125 C 7.957031 -3.085938 7.976562 -3.046875 7.976562 -3.007812 C 7.976562 -2.988281 7.957031 -2.96875 7.9375 -2.96875 C 7.917969 -2.96875 7.898438 -2.988281 7.898438 -3.007812 C 7.898438 -3.046875 7.917969 -3.085938 7.9375 -3.125 Z M 2.257812 -3.949219 C 2.398438 -4.027344 2.378906 -4.027344 2.417969 -4.183594 C 2.417969 -4.183594 2.398438 -4.207031 2.378906 -4.207031 C 2.339844 -4.207031 2.238281 -4.183594 2.238281 -4.144531 C 2.238281 -4.085938 2.257812 -4.027344 2.257812 -3.949219 Z M 10 -10.0625 C 10 -10.0625 9.980469 -10.082031 9.980469 -10.082031 C 10.042969 -10.179688 10.140625 -10.355469 10.140625 -10.433594 C 10.140625 -10.453125 10.140625 -10.472656 10.101562 -10.472656 C 9.980469 -10.472656 9.941406 -10.316406 9.941406 -10.238281 C 9.941406 -10.179688 9.960938 -10.121094 10 -10.0625 Z M 2.359375 -2.238281 C 2.359375 -2.300781 2.339844 -2.320312 2.300781 -2.359375 C 2.28125 -2.320312 2.257812 -2.28125 2.238281 -2.238281 C 2.238281 -2.199219 2.257812 -2.160156 2.300781 -2.160156 C 2.320312 -2.160156 2.339844 -2.199219 2.359375 -2.238281 Z M 1.75 -2.199219 C 1.75 -2.21875 1.730469 -2.238281 1.730469 -2.257812 C 1.710938 -2.238281 1.691406 -2.21875 1.691406 -2.199219 C 1.691406 -2.199219 1.710938 -2.179688 1.730469 -2.160156 C 1.730469 -2.179688 1.75 -2.179688 1.75 -2.199219 Z M 1.75 -2.199219 "/></g></g></g></svg>